<svg xmlns="http://www.w3.org/2000/svg" viewBox="0 0 40 40"><path d="M23.05 25.8a.19.19 0 0 0-.11.08.12.12 0 0 0 .06.12 24.74 24.74 0 0 0 4.84 2.87 2.57 2.57 0 0 0 .53.08h.19c.87 0 2.37-.48 3.74-2.83zM34.73 18s-7.83 4.21-11.89 6.94a.11.11 0 0 0 0 .13s0 .07.09.07h7.08a5.54 5.54 0 0 0 1.59-.37 5.42 5.42 0 0 0 3-2.84 5.53 5.53 0 0 0 .4-2.27v-.05a5 5 0 0 0-.27-1.61zm-4.32-7.68a68.63 68.63 0 0 0-8.34 13.51s0 .09 0 .14h.05c1.32-.65 6.81-3.45 9.09-5.67a4.46 4.46 0 0 0 1.52-3c.17-2.59-2.43-5-2.43-5zM22.2 6.34s-2.74 3.52-1.41 16.79a.11.11 0 0 0 .21.05c.88-1.28 4.87-7.19 5.68-10.8a6.13 6.13 0 0 0 0-2.92 4.28 4.28 0 0 0-3.05-2.84s-.71-.18-1.45-.29zM7.72 26.12c1.37 2.35 2.87 2.8 3.74 2.83h.19a2.57 2.57 0 0 0 .53-.08A24.74 24.74 0 0 0 17 26a.12.12 0 0 0 0-.12.19.19 0 0 0 0-.08zM5.27 18A5 5 0 0 0 5 19.61v.05a5.53 5.53 0 0 0 .47 2.23 5.42 5.42 0 0 0 3 2.84 5.54 5.54 0 0 0 1.53.37h7.08c.06 0 .09-.07.09-.07a.11.11 0 0 0 0-.13C13.1 22.18 5.27 18 5.27 18zm4.32-7.68s-2.6 2.39-2.43 5a4.46 4.46 0 0 0 1.52 3c2.28 2.22 7.77 5 9.09 5.67h.05c.07 0 0-.14 0-.14a68.63 68.63 0 0 0-8.23-13.53zm8.21-3.98c-.74.11-1.45.29-1.45.29a4.28 4.28 0 0 0-3.05 2.84 6.13 6.13 0 0 0 0 2.92c.81 3.61 4.8 9.52 5.68 10.8a.11.11 0 0 0 .21-.05c1.35-13.28-1.39-16.8-1.39-16.8z"/></svg>